# xmcd
#
# Track frame offsets: 
#        150
#        6379
#        27903
#        84301
#        129485
#        157108
#        209843
#
# Disc length: 3129 seconds
#
# Revision: 0
# Processed by: cddbd v1.5.2PL0 Copyright (c) Steve Scherf et al.
# Submitted via: ExactAudioCopy v0.95b3
#
DISCID=5b0c3707
DTITLE=Jimi Hendrix  - Royal Albert Hall 02-24-69 - Disc 1  FLAC
DYEAR=1900
DGENRE=
TTITLE0=Jimi Rap and Tune Up
TTITLE1=Lover Man
TTITLE2=Stone Free
TTITLE3=Hear My Train A-Comin'
TTITLE4=I Don't Live Today
TTITLE5=Red House
TTITLE6=Foxy Lady
EXTD=
EXTT0=
EXTT1=
EXTT2=
EXTT3=
EXTT4=
EXTT5=
EXTT6=
PLAYORDER=
